<svg width="260" height="52" viewBox="0 0 260 52" fill="none" xmlns="http://www.w3.org/2000/svg">
<g clip-path="url(#clip0_71_171)">
<path d="M34.9717 40.1236H13.6451L8.09454 52H0L24.6471 0L48.4351 52H40.1754L34.9717 40.1236ZM31.9156 33.1794L24.5149 16.5491L16.7838 33.1794H31.9156Z" fill="url(#paint0_linear_71_171)"/>
<path d="M102.421 22.6009L121.815 3.13137H131.842L109.26 25.2293L131.908 52H121.831L103.891 30.2265L102.355 31.7517V52H94.8383V3.06647H102.421V22.6009Z" fill="url(#paint1_linear_71_171)"/>
<path d="M166.103 10.0106H146.131V21.7735H165.525V28.7176H146.131V45.0559H166.103V52H138.615V3.06647H166.103V10.0106Z" fill="url(#paint2_linear_71_171)"/>
<path d="M184.589 45.0559H208.492V52H172.232L196.697 10.0106H176.23V3.06647H209.054L184.589 45.0559Z" fill="url(#paint3_linear_71_171)"/>
<path d="M246.537 40.1236H225.21L219.709 52H211.615L236.229 0L260.017 52H251.757L246.537 40.1236ZM243.481 33.1794L236.08 16.5491L228.349 33.1794H243.481Z" fill="url(#paint4_linear_71_171)"/>
<path d="M60.2466 19.3235C60.3476 16.9696 61.3708 14.7451 63.1024 13.1147C64.834 11.4842 67.14 10.5739 69.5388 10.5739C71.9376 10.5739 74.2436 11.4842 75.9752 13.1147C77.7067 14.7451 78.7299 16.9696 78.831 19.3235H86.083C86.083 16.1146 85.1142 12.9777 83.299 10.3096C81.4838 7.64147 78.9038 5.56192 75.8853 4.33391C72.8667 3.10591 69.5452 2.7846 66.3408 3.41064C63.1363 4.03667 60.1928 5.58192 57.8825 7.85097C55.5722 10.12 53.9989 13.011 53.3615 16.1583C52.7241 19.3055 53.0512 22.5678 54.3015 25.5324C55.5519 28.4971 57.6692 31.031 60.3858 32.8138C63.1024 34.5966 66.2963 35.5482 69.5636 35.5482V28.458C68.3402 28.4623 67.128 28.2291 65.9968 27.7717C64.8655 27.3144 63.8374 26.642 62.9716 25.7931C62.1058 24.9443 61.4193 23.9357 60.9517 22.8254C60.484 21.7152 60.2444 20.5251 60.2466 19.3235Z" fill="url(#paint5_linear_71_171)"/>
<path d="M78.8309 35.6943C78.8837 36.9251 78.6825 38.1538 78.2394 39.3063C77.7962 40.4588 77.1203 41.5114 76.2522 42.4007C75.3841 43.2899 74.3419 43.9976 73.1882 44.481C72.0344 44.9644 70.793 45.2136 69.5387 45.2136C68.2843 45.2136 67.043 44.9644 65.8892 44.481C64.7355 43.9976 63.6932 43.2899 62.8251 42.4007C61.9571 41.5114 61.2811 40.4588 60.838 39.3063C60.3948 38.1538 60.1936 36.9251 60.2465 35.6943H52.9779C52.9779 38.9032 53.9468 42.0401 55.7619 44.7082C57.5771 47.3763 60.1571 49.4559 63.1756 50.6839C66.1942 51.9119 69.5157 52.2332 72.7202 51.6072C75.9246 50.9811 78.8681 49.4359 81.1784 47.1668C83.4887 44.8978 85.062 42.0068 85.6994 38.8595C86.3368 35.7123 86.0097 32.45 84.7594 29.4854C83.5091 26.5207 81.3917 23.9867 78.6751 22.204C75.9585 20.4212 72.7646 19.4696 69.4974 19.4696V26.5922C70.7187 26.588 71.929 26.82 73.059 27.2751C74.1891 27.7302 75.2168 28.3995 76.0835 29.2447C76.9502 30.0899 77.6389 31.0945 78.1103 32.2011C78.5817 33.3077 78.8266 34.4947 78.8309 35.6943Z" fill="url(#paint6_linear_71_171)"/>
</g>
<defs>
<linearGradient id="paint0_linear_71_171" x1="0" y1="26.0081" x2="48.4351" y2="26.0081" gradientUnits="userSpaceOnUse">
<stop stop-color="#4F5EE3"/>
<stop offset="0.11" stop-color="#4C5AD7"/>
<stop offset="0.3" stop-color="#434FB7"/>
<stop offset="0.56" stop-color="#353D82"/>
<stop offset="0.86" stop-color="#22253B"/>
<stop offset="1" stop-color="#191919"/>
</linearGradient>
<linearGradient id="paint1_linear_71_171" x1="94.8383" y1="27.5332" x2="131.908" y2="27.5332" gradientUnits="userSpaceOnUse">
<stop stop-color="#4F5EE3"/>
<stop offset="0.11" stop-color="#4C5AD7"/>
<stop offset="0.3" stop-color="#434FB7"/>
<stop offset="0.56" stop-color="#353D82"/>
<stop offset="0.86" stop-color="#22253B"/>
<stop offset="1" stop-color="#191919"/>
</linearGradient>
<linearGradient id="paint2_linear_71_171" x1="138.615" y1="27.5332" x2="166.103" y2="27.5332" gradientUnits="userSpaceOnUse">
<stop stop-color="#4F5EE3"/>
<stop offset="0.11" stop-color="#4C5AD7"/>
<stop offset="0.3" stop-color="#434FB7"/>
<stop offset="0.56" stop-color="#353D82"/>
<stop offset="0.86" stop-color="#22253B"/>
<stop offset="1" stop-color="#191919"/>
</linearGradient>
<linearGradient id="paint3_linear_71_171" x1="172.232" y1="27.5332" x2="209.054" y2="27.5332" gradientUnits="userSpaceOnUse">
<stop stop-color="#4F5EE3"/>
<stop offset="0.11" stop-color="#4C5AD7"/>
<stop offset="0.3" stop-color="#434FB7"/>
<stop offset="0.56" stop-color="#353D82"/>
<stop offset="0.86" stop-color="#22253B"/>
<stop offset="1" stop-color="#191919"/>
</linearGradient>
<linearGradient id="paint4_linear_71_171" x1="211.565" y1="26.0081" x2="260" y2="26.0081" gradientUnits="userSpaceOnUse">
<stop stop-color="#4F5EE3"/>
<stop offset="0.11" stop-color="#4C5AD7"/>
<stop offset="0.3" stop-color="#434FB7"/>
<stop offset="0.56" stop-color="#353D82"/>
<stop offset="0.86" stop-color="#22253B"/>
<stop offset="1" stop-color="#191919"/>
</linearGradient>
<linearGradient id="paint5_linear_71_171" x1="52.978" y1="19.3235" x2="86.083" y2="19.3235" gradientUnits="userSpaceOnUse">
<stop stop-color="#4F5EE3"/>
<stop offset="0.11" stop-color="#4C5AD7"/>
<stop offset="0.3" stop-color="#434FB7"/>
<stop offset="0.56" stop-color="#353D82"/>
<stop offset="0.86" stop-color="#22253B"/>
<stop offset="1" stop-color="#191919"/>
</linearGradient>
<linearGradient id="paint6_linear_71_171" x1="52.9779" y1="35.7429" x2="86.0829" y2="35.7429" gradientUnits="userSpaceOnUse">
<stop stop-color="#4F5EE3"/>
<stop offset="0.11" stop-color="#4C5AD7"/>
<stop offset="0.3" stop-color="#434FB7"/>
<stop offset="0.56" stop-color="#353D82"/>
<stop offset="0.86" stop-color="#22253B"/>
<stop offset="1" stop-color="#191919"/>
</linearGradient>
<clipPath id="clip0_71_171">
<rect width="260" height="52" fill="white"/>
</clipPath>
</defs>
</svg>
